<svg xmlns="http://www.w3.org/2000/svg" viewBox="0 0 512 512">
  <defs>
    <linearGradient id="panel" x1="64" y1="46" x2="448" y2="466" gradientUnits="userSpaceOnUse">
      <stop stop-color="#132124"/>
      <stop offset="1" stop-color="#070c0e"/>
    </linearGradient>
    <clipPath id="shield"><path d="M64 46h384v350L256 466 64 396Z"/></clipPath>
  </defs>
  <rect width="512" height="512" fill="#05090a"/>
  <path d="M64 46h384v350L256 466 64 396Z" fill="url(#panel)" stroke="#4e9eff" stroke-width="8"/>
  <g clip-path="url(#shield)" stroke="#54c8c6" stroke-opacity=".12" stroke-width="2">
    <path d="M64 128h384M64 210h384M64 292h384M64 374h384"/>
    <path d="M142 46v380M220 46v410M298 46v410M376 46v380"/>
  </g>
  <path d="M112 96h76M324 96h76" stroke="#73d49a" stroke-width="8"/>
  <circle cx="256" cy="245" r="118" fill="none" stroke="#54c8c6" stroke-opacity=".28" stroke-width="4"/>
  <path d="M144 356 226 145h60l82 211h-62l-15-48h-72l-16 48Zm94-101h35l-17-57Z" fill="#e7ede8"/>
  <path d="M112 397h288" stroke="#4e9eff" stroke-width="18" stroke-dasharray="46 12"/>
</svg>
